<?xml version="1.0" encoding="utf-8"?>
<!-- Generator: Adobe Illustrator 22.0.0, SVG Export Plug-In . SVG Version: 6.00 Build 0)  -->
<svg version="1.1" id="Lager_1" xmlns="http://www.w3.org/2000/svg" xmlns:xlink="http://www.w3.org/1999/xlink" x="0px" y="0px"
	 viewBox="0 0 556.2 207.5" style="enable-background:new 0 0 556.2 207.5;" xml:space="preserve">
<style type="text/css">
	.st0{fill:#FFFFFF;}
</style>
<g>
	<path class="st0" d="M134.9,3.1c5.3,4.6,9.5,9.8,10.1,17.2c0.5,7-1.8,12.9-6.8,18.4c-2.4-5.8-5-11.3-6.8-16.9c-1.3-4-3.1-7-7.3-7.7
		c-3.8-0.7-7,0.9-8.9,4.2c-2.1,3.7-1.5,7.3,1.4,10.5c5.4,5.8,5.8,13.3,7.6,20.6c1.7,7.2-0.1,13.2-2.9,19.2c-1.9,4.1-4.8,7.8-11,8.4
		c-8.1,21.6-16.4,43.7-24.8,66c-6-6.1-12.2-12.4-18.3-18.8c-1.8-1.9-1-3.8,0.1-5.9c8.3-16.6,16.4-33.3,25.2-51.2
		c-3.9-0.9-7-1.1-9.7-2.2c-5.9-2.4-13.3-2-16.4-9.3c-0.3-0.7-1.2-1.2-1.9-1.6c-1.5-0.9-3-1.8-4.6-2.6c-10.5-5.3-10.5-5.3-5.7-16.3
		c4.3-10,4.3-9.8,14.3-6.3c3.5,1.2,7,4.1,11.1,0.9c0.4-0.3,1.7,0.1,2.4,0.5c5.2,3,12,3.1,15.5,9.1c0.6,1.1,2.7,1.3,4.2,1.9
		c2.4-2.9,2.8-5.4,1.2-8.7c-4.2-8.2-3-16.4,2.4-23.5c5.3-7.1,12.8-9.9,21.7-8.4"/>
	<path class="st0" d="M145,170c-2.8-1.8-5.3-3.4-7.9-5.1c-2.3,4-4.2,7.9-6.7,11.5c-9,13.4-21.8,19.8-37.8,19.9
		c-6.6,0.1-13.1,0.2-19.7,0.5c-11,0.6-21.2,3.8-29.5,10.8c-0.7-0.4-0.9-0.5-0.9-0.5c-1.7-16.9-11.7-29.3-23.1-40.7
		c-16-15.9-19.2-34-10.8-54.6c0.2-0.5,0.3-1.1,0.7-2.1c-1.6-0.5-3-0.9-4.5-1.3c-1.5-0.4-3-0.8-4.7-1.2c8.3-10.3,41.8-17.5,50.9-13.4
		c-5.8,11.3-11.7,22.6-17.4,33.8c-1.6-2.8-3.6-6.2-5.7-9.9c-5.8,9.5-3.5,22,4.5,27.8c7.3,5.3,14.2,2.8,25.2-9.5
		c7.6,8.8,15,17.6,22.6,26.2c12.1,13.9,26,15,36.7-1c0.7-1,1-2.3,2-4.5c-4.5,1.1-8.2,2-12.3,2.9c4.8-12,11.3-23.2,12.1-36.3
		C129.3,126.9,146.1,156.1,145,170z"/>
	<path class="st0" d="M127.6,85c7.4-9.8,10.8-17.4,13-29.7c3.2,1.5,6.8,1.7,7.9,6.4c0.4,1.9,4.3,3.1,6.8,4.3c9.7,4.9,9.8,4.9,5.4,15
		c-4.7,10.9-4.7,10.8-15.9,6.9c-3.1-1.1-6-3-9.9-0.8C133.3,88,130.1,85.9,127.6,85z"/>
	<path class="st0" d="M89.7,153.1c-7.3,0.4-15.2,1.8-17.2-8.2C82.6,143.1,85,144.3,89.7,153.1z"/>
	<path class="st0" d="M124.3,35.9c9.2,0.2,11.4,0.6,12.4,13.4C127.5,47,125.5,44.8,124.3,35.9z"/>
	<path class="st0" d="M79.6,141.9c-6.9,1.8-13.7,3-17.5-5.2C71.4,132.8,75.2,134,79.6,141.9z"/>
	<path class="st0" d="M126.6,81.5c-0.8-6.4-4.6-13.3,1.4-19.3C135,69,134.6,74.2,126.6,81.5z"/>
	<path class="st0" d="M64.4,104.4c-6.4-7.9-5.6-11.2,4-15.3C70.9,95.1,70.8,100.5,64.4,104.4z"/>
	<path class="st0" d="M122.9,73.4c2.1,9.9,0.4,12.7-8.8,15.4C114.7,78.1,114.8,78,122.9,73.4z"/>
	<path class="st0" d="M128.1,48.4c9.9,4.7,10.1,5.3,7.2,17.2C127.6,57.6,127.6,57.6,128.1,48.4z"/>
	<path class="st0" d="M134.3,35.1c-3.9-0.7-6.9-0.6-9.2-1.9c-2.1-1.2-3.6-3.7-4.8-5.9c-0.3-0.5,1.7-2.8,3-3.3
		c2.9-1.3,5.1,0.3,6.6,2.7C131.3,29.2,132.6,31.8,134.3,35.1z"/>
	<path class="st0" d="M95.6,164.9c-7.2,0-13.1-1.4-14.7-9.4C90,153.9,93,155.7,95.6,164.9z"/>
	<path class="st0" d="M55.2,125.3c6.1-0.5,11.7,0.3,14.3,6.9C59.8,135.9,55.1,133.6,55.2,125.3z"/>
	<path class="st0" d="M52.2,111.7c6.8,0.9,10.7,4.6,10.9,11.7C55,125.4,51.2,120.7,52.2,111.7z"/>
	<path class="st0" d="M61.3,113.5c-9.4-4.8-9.8-6.5-4.4-15.4C61.4,102.3,65,106.7,61.3,113.5z"/>
	<path class="st0" d="M81.1,84.9c-2.8,5.2-5.2,9.6-8.2,15C69.1,89.2,70.6,86.5,81.1,84.9z"/>
	<path class="st0" d="M112.8,82.2c-1.2,3.2-2.3,6.3-3.5,9.5c-0.5-0.2-0.9-0.4-1.4-0.5c1.3-3.1,2.7-6.2,4-9.3
		C112.2,81.9,112.5,82,112.8,82.2z"/>
</g>
<g>
	<path class="st0" d="M209.9,63.5c-0.5,1-0.6,2.2-0.5,3.6c0,0.3,0.1,0.9,0.3,1.9c0.1,0.8,0.2,1.5,0.2,2c0.1,1.6,0,5.7-0.4,12.2
		c-0.3,5.1,0,8.9,0.7,11.4c0.2,0.7,0.9,1.6,2.2,2.7c1.1,1,1.6,1.9,1.5,2.6c-0.1,1.2-1.3,2.1-3.8,2.6c-1,0.2-3.4,0.5-7,0.8
		c-4.3,0.4-7.4,0.1-9.2-0.8c-2.3-1.1-2.1-3.1,0.5-6c-0.4-2-0.5-5.2-0.2-9.7c0.2-3.9-0.1-6.7-0.8-8.5c-0.3-0.6-1-1.3-2.1-2
		c-1-0.7-1.5-1.3-1.6-2c-0.1-1.1,0.4-2,1.6-2.8c1.4-0.9,2.2-1.8,2.4-2.6c0.2-0.8,0.2-1.6,0-2.4c-0.4-1.2-0.6-2.2-0.6-3
		c-1.6-0.8-3.4-0.9-5.4-0.3c-0.4,0.5-0.6,1.7-0.7,3.7c-0.1,1.8-0.4,2.9-1,3.3c-1.4,0.3-2.5-0.1-3.3-1.1c-0.7-0.9-1.1-2.1-1.2-3.7
		c-0.1-1.4,0-2.8,0.4-4.3c0.3-1.4,0.8-2.5,1.4-3c11.4-0.2,21.5-0.6,30.3-1.3c3-0.3,4.9,0.1,5.7,1c1,1.1,1.5,3.2,1.4,6.2
		c0,3.2-1,4.9-2.8,4.9c-1.3,0-2.2-0.6-2.6-2c-0.1-0.3-0.2-0.9-0.5-2c-0.2-0.9-0.4-1.6-0.6-2.1C213.9,62.8,212.4,63,209.9,63.5z
		 M199.2,64.9c0.3,1.6,0.3,4.3,0.2,8c-0.1,3.3,0,5.8,0.5,7.5c0.4,0.3,1.1,0.4,2,0.4c0.8,0,1.5-0.2,2-0.4c1.2-4.8,1.2-10.1,0-15.8
		c-1.1-0.6-2.3-0.8-3.7-0.7C199.7,64.1,199.4,64.4,199.2,64.9z"/>
	<path class="st0" d="M247,62c-1.1,1.1-1.7,1.8-1.8,1.9c-0.7,3.6-0.7,6.8,0.2,9.5c0.9,2.9,2.6,4.7,5.1,5.5c2.3-0.2,3.8-1.8,4.3-5
		c0.3-1.5,0.3-4.3,0.1-8.3c-0.4-0.4-1.5-1.1-3.2-2.2c-1.1-0.7-1.6-1.5-1.5-2.5c0.1-1,0.9-1.8,2.5-2.5c1.4-0.7,3.1-1,5-1.2
		c2-0.2,3.7,0,5,0.4c1.5,0.5,2.3,1.2,2.4,2.3c0.1,1.2-0.4,2.1-1.5,2.7c-1.5,0.8-2.5,1.5-2.8,1.9c0.1,0.8,0.2,2,0.1,3.6
		c-0.1,1.4,0,2.6,0.2,3.4c0.1,0.5,0.5,1.2,1.1,2c0.5,0.7,0.8,1.4,0.8,2c0,0.6-0.3,1.3-0.9,2.3c-0.8,1.1-1.2,1.9-1.4,2.4
		c-0.5,1.8-0.7,4.1-0.5,7c0.3,4.9,0.5,7.4,0.5,7.7c0.3,0.3,1.3,0.9,3,1.7c1.1,0.6,1.6,1.4,1.6,2.6c0,1.9-1.6,3.1-4.7,3.6
		c-2.7,0.4-5.3,0.2-7.9-0.6c-0.8-1.2-0.8-2.4-0.2-3.6c0.3-0.7,1.1-1.6,2.2-2.7c0.5-2.4,0.5-5.9,0-10.3c-1.7,1.2-3.4,1.4-5.1,0.7
		c0,0-1.4-0.9-4.3-2.7c-0.9,5.2-1,8.9-0.3,11.3c0,0.1,0.5,0.9,1.6,2.4c0.9,1.2,1.2,2.2,1.1,3c-0.2,0.8-1.4,1.5-3.9,2.1
		c-2.2,0.6-4.9,0.9-7.9,1.1c-3.1,0.2-5.7,0-7.8-0.4c-2.4-0.4-3.6-1.2-3.7-2.2c-0.1-0.9,0.4-1.7,1.4-2.4c1.3-0.8,2-1.4,2.3-1.9
		c-0.1-0.9-0.1-3.7,0-8.5c0.1-3.5-0.2-6.2-0.7-8.1c-0.2-0.5-0.6-1.3-1.4-2.4c-0.7-1-1-1.7-1-2.2c0-0.8,0.4-1.5,1.2-2.1
		c1-0.8,1.6-1.4,1.8-1.9c0.5-1.2,0.7-2.4,0.5-3.6c-0.1-0.4-0.2-1-0.4-1.7c-0.2-0.9-0.4-1.5-0.5-2c-0.3-0.4-1.2-1-2.7-1.7
		c-1.1-0.5-1.6-1.3-1.7-2.3c0-1.3,1.1-2.2,3.4-2.8c2-0.5,4.6-0.7,7.8-0.6c2.9,0.1,5.7,0.4,8.2,0.9c2.6,0.5,4.3,1.1,4.9,1.7
		C248,60.4,247.7,61.3,247,62z M234.6,83.9c0.6,0.5,1.9,0.8,4,0.7c0.4-2.1,0.6-5.2,0.5-9.4c-0.1-4.9,0-8.3,0.2-10.2
		c-1-0.8-2.4-1-4.4-0.7C233.2,68.6,233.1,75.1,234.6,83.9z"/>
	<path class="st0" d="M302.9,68.1c-0.2,3-0.9,4.7-2.3,4.9c-3,0.6-4.4-2.6-4-9.7c-0.7-0.5-2.2-0.8-4.4-0.8c-0.5,0-1.4,0-2.5,0.1
		c-0.9,0-1.6,0.1-1.9,0c-0.7,0.6-1,1.6-0.9,3c0.2,2.4,0.2,3.8,0.2,4c0.5,0.3,1.1,0.2,1.9-0.3c0.9-0.5,1.7-0.7,2.5-0.4
		c0.8,0.7,1.4,2,1.7,3.8c0.3,1.7,0.3,3.4-0.1,5c-0.4,1.7-1,2.8-1.9,3.4c-1,0.6-2.3,0.3-3.7-1.1c-0.2,1.5-0.1,6.6,0.3,15.4
		c0.7,0.9,2.1,1.4,4.2,1.6c1.8,0.2,3.6,0.1,5.2-0.3c0.7-0.3,1.2-1.2,1.6-2.6c0.4-1.3,0.9-2,1.7-2.1c1.8-0.4,2.9,0.6,3.2,3
		c0.3,2,0.1,3.7-0.5,5.1s-1.8,2.3-3.5,2.8c-1.4,0.4-3.2,0.5-5.6,0.4c-0.9,0-3.2-0.3-6.9-0.7c-3-0.3-5.4-0.5-7.2-0.5
		c-0.7,0-1.8,0.1-3.1,0.4c-1.7,0.3-2.8,0.5-3.2,0.6c-2.4,0.3-3.9-0.3-4.4-1.7c-0.3-0.8,0-1.7,0.7-2.6c1-1.3,1.5-2.2,1.6-2.7
		c0.3-1.5,0.5-4.5,0.5-9c0-4.5-0.2-7.2-0.5-8.1c-0.2-0.6-0.8-1.2-1.6-1.7c-0.9-0.5-1.6-1.2-2.1-2c0-0.9,0.5-1.7,1.3-2.4
		c1.3-1,2-1.5,2.1-1.6c0.3-3.7,0.4-5.7,0.3-6c-0.1-0.5-0.8-1.3-1.9-2.3c-0.9-0.9-1.3-1.8-1.2-2.7c0.2-1,2.1-1.9,5.6-2.4
		c1.1-0.2,3.9-0.5,8.5-0.9c11.4-1.1,18.3,0.2,20.5,3.7C303.4,60.7,303.2,63.2,302.9,68.1z M277.9,81.7c0.9,0.3,2,0.4,3,0.3
		c0.4-2.6,0.6-5.7,0.5-9.1c0-4.1-0.4-7.1-1.2-9c-0.3-0.1-0.7,0-1,0.2c-0.3,0.2-0.7,0.3-1,0.2C277.2,67.5,277.1,73.3,277.9,81.7z"/>
	<path class="st0" d="M344.2,63.3c-0.5,1.1-0.5,3,0,5.7c0.3,0.2,1,0.3,1.9,0.1c1-0.2,1.7-0.1,2.1,0.2c0.7,1.7,1.2,4.1,1.2,7.4
		c0.1,3.3-0.2,5.6-0.9,7.1c-0.5,0.3-1.2,0.4-2,0.3c-0.1,0-0.4-0.1-1-0.2c-0.4-0.1-0.8-0.1-1-0.1c0,1.2,0,3.3,0,6.3
		c0,2.7,0,4.5,0,5.5c0.5,0.7,1.4,1.6,2.7,2.7c0.9,0.7,1.4,1.5,1.3,2.4c-0.2,1.6-1.7,2.4-4.5,2.5c-0.8,0-2.1-0.1-4-0.2
		c-1.8-0.1-3.2-0.2-4-0.2c-1,0-2.3,0.1-4.1,0.3c-1.9,0.2-3.1,0.3-3.7,0.4c-2.6,0.1-4-0.6-4.4-2c-0.2-1,0.1-1.9,0.9-2.6
		c1.4-1.1,2.2-1.8,2.4-2.1c0.6-5.2,0.6-10.7,0-16.5c-2.3-0.9-3.5-2.3-3.5-4.2c0-1.8,1.2-3.4,3.5-4.6c-0.1-1.1-0.1-2.4,0.1-4.1
		c0.2-1.5,0.1-2.6-0.1-3.3c-0.2-0.6-1-1.6-2.4-2.9c-1.2-1.1-1.6-2.2-1.3-3.5c0.7-0.9,1.7-1.2,3-0.9c0.4,0.1,1,0.2,1.8,0.5
		c0.8,0.2,1.5,0.4,1.9,0.5c1.7,0.3,7,0,16.1-0.8c7.3-0.6,11.5-0.1,12.5,1.4c0.9,1.3,1,3.7,0.3,7.2c-0.6,3.7-1.8,5.5-3.4,5.6
		c-1.8,0.1-2.9-0.9-3.2-3c-0.1-0.7-0.2-1.6-0.1-2.9c0-1.5,0-2.5,0-2.8C350.2,61.7,347.4,62,344.2,63.3z M332.8,73.2
		c0.1,4.4,0.6,7.5,1.6,9.4h2.4c1.2-4.4,1.4-10.6,0.4-18.5c-0.3-0.2-0.8-0.4-1.5-0.4c-1.4,0-2,0-1.9,0C333,66,332.7,69.2,332.8,73.2z
		"/>
	<path class="st0" d="M395.5,101.9c-2.1,1.5-5.8,1.9-11.2,1c-6.9-1.1-11.1-1.6-12.6-1.4c-0.4,0.1-1.2,0.3-2.4,0.6
		c-1.3,0.3-2.3,0.5-2.9,0.7c-2.4,0.3-3.8-0.2-4.2-1.5c-0.3-1.1,0-2.2,1-3.3c1.2-1.4,1.9-2.4,2-3.1c1-7.5,1.2-12.6,0.3-15.3
		c-0.3-0.9-0.9-1.6-2-2.3c-0.9-0.5-1.4-1.2-1.4-2.2c0-1,0.4-1.7,1.1-2.1c1.3-0.7,2.1-1.1,2.3-1.3c0-0.5,0.1-1.8,0.4-4.1
		c0.1-1.2,0-2.4-0.4-3.4c-0.2-0.6-0.8-1.3-1.9-2.1c-1-0.7-1.5-1.4-1.5-2c-0.2-2.3,1.6-3.4,5.2-3.4c1.1,0,2.7,0.1,4.9,0.3
		c2.2,0.2,3.7,0.3,4.5,0.3c0.4,0,1.1,0,2-0.1c1-0.1,1.8-0.2,2.3-0.2c1.8-0.1,3,0.3,3.5,1c0.3,1,0,2-0.9,3c-1.1,1.3-1.7,2.3-1.9,2.8
		c-0.4,1.8-0.6,4.4-0.4,8c0.3,6,0.4,9,0.4,9c0,9.1,0.1,14.5,0.3,16.3c1.5,1.2,3.7,1.3,6.5,0.4c0.6-0.6,1.1-2.1,1.6-4.5
		c0.4-2,1.3-3.1,2.5-3.3c1-0.1,1.7,0.2,2.2,0.8c0.4,0.5,0.6,1.4,0.8,2.5c0.5,4.2,0.8,6.4,0.8,6.5L395.5,101.9z M372,83.6
		c0.8,0.3,1.9,0.4,3.4,0.3c0.8-2.3,1.3-5.5,1.3-9.5c0,0.3-0.1-3.2-0.3-10.5c-0.7-0.4-1.7-0.7-2.8-0.8c-1.4-0.1-2.2,0.2-2.3,1.1
		C370.8,74.8,371,81.2,372,83.6z"/>
	<path class="st0" d="M431.6,103.4c-0.3-0.1-0.9-0.2-1.7-0.5c-0.8-0.3-1.4-0.4-1.9-0.5c-1.8-0.3-5-0.1-9.6,0.5
		c-3.8,0.5-6.6,0.4-8.1-0.5c-0.3-1.7,0.1-3,1.2-3.8c0.3-0.2,0.8-0.5,1.6-0.9c0.7-0.4,1.3-0.7,1.6-0.9c0-1.2,0-2.9,0-5.2
		c0-2.2,0-3.9,0-4.9c-0.2-3.5-1.1-6.1-2.6-7.6c-0.5-0.5-1.6-1-3.2-1.7c-1.4-0.5-2.3-1.3-2.8-2.3c-0.1-0.9,0.1-1.6,0.6-2.2
		c0.5-0.7,0.7-1.3,0.7-1.8c0-1.2-0.4-2.3-1.3-3.3c-0.5-0.6-1.4-1.3-2.7-2.2c-1.4-1-2.3-1.7-2.8-2.3c-0.9-1-1.4-2-1.5-3.2
		c0.1,0,0.2-0.1,0.3-0.3c0,0,0-0.1,0-0.2c0-0.1,0-0.2,0-0.2c9-1.2,15-1.8,17.9-1.7c8,0,9.7,2.3,5.2,6.7c0.3,0.6,0.6,1.4,1.1,2.5
		c0.5,1.2,0.8,2,1,2.5c0.9,1.9,1.8,3.3,2.9,4.1c0.2-0.7,1.1-2.2,2.5-4.6c1.1-1.9,1.7-3.6,1.8-5.1c0-0.4-0.2-1-0.6-2
		c-0.4-0.9-0.5-1.6-0.5-2.1c0.1-0.9,0.9-1.6,2.3-2.2c1.2-0.5,2.7-0.8,4.4-0.8c1.7-0.1,3.2,0.1,4.4,0.5c1.4,0.4,2.1,1,2.2,1.8
		c0.2,1.1-0.5,2.1-2.1,2.9c-0.3,0.2-0.9,0.5-1.9,0.9c-0.7,0.3-1.2,0.6-1.4,0.8c-0.9,0.8-2.2,3.1-4,7.1c-1.6,3.5-2.8,6.6-3.7,9.3
		c-0.3,1.1-0.4,2.7-0.2,4.9c0.3,3.1,0.5,4.9,0.5,5.4c0,0.4-0.2,1.2-0.5,2.4c-0.3,1-0.3,1.8-0.2,2.3c0.2,0.7,1.1,1.9,2.9,3.4
		c0.7,0.6,1.1,1.1,1.3,1.6c0.3,0.7,0.2,1.4-0.2,2.3C434,103.3,432.9,103.6,431.6,103.4z M417.9,67.3c-1.5-2-3.6-2.6-6.2-1.7
		c-0.4,1.2-0.1,2.7,1.1,4.4c0.2,0.4,0.8,1.1,1.6,2.3c0.7,1,1.3,1.8,1.6,2.4c0.2,0.4,0.7,1.4,1.5,3c0.6,1.3,1.1,2.2,1.6,2.8
		c1.5,1.9,3.4,2.4,5.9,1.6c0-1.1-0.5-2.4-1.4-4c-1.8-3.1-2.7-4.5-2.6-4.4C418.9,69.3,417.8,67.2,417.9,67.3z"/>
	<path class="st0" d="M466.5,80.1c-0.7,7.1-0.5,12.2,0.4,15.2c0,0.2,0.6,1,1.8,2.6c0.9,1.3,1.2,2.3,0.9,3.1
		c-0.4,1.2-1.8,1.8-4.3,1.7c-0.6,0-1.6-0.1-3.1-0.2c-1.2-0.1-2.1-0.1-2.7-0.1c-0.7,0-1.8,0.2-3.3,0.5c-1.5,0.3-2.7,0.5-3.3,0.5
		c-2.5,0.2-4.1-0.3-4.9-1.7c-0.2-1.1,0.1-2.2,0.9-3.2c0.9-1.2,1.4-2.1,1.5-2.6c1-4.5,1-9.5,0-14.9c-0.1-0.6-0.5-1.6-1.3-2.8
		c-0.7-1.1-1-2-1-2.6c0-0.7,0.7-2.2,2.2-4.5c1.2-1.9,1.4-3.8,0.5-5.6c-0.2-0.6-1-1.2-2.3-2c-1.1-0.7-1.7-1.4-1.8-2.1
		c-0.2-1.8,1.2-3,4.3-3.7c0.8-0.2,3.7-0.5,8.5-1c4.5-0.4,7.7,0.1,9.6,1.7c0.9,0.7,1.2,1.6,0.9,2.6c-0.3,1-1.2,2.1-2.8,3.2
		C467.5,66.7,467.3,72,466.5,80.1z M456.7,83.1c0.2,0,0.8,0.2,1.6,0.5c0.6,0.2,1.2,0.3,1.8,0.2c1.2-7.2,1.4-13.9,0.3-20.3
		c0.1,0-1.2,0.3-3.7,0.7C456.2,74.2,456.2,80.5,456.7,83.1z"/>
	<path class="st0" d="M497.1,58.9c0.1,0.5-0.2,1.2-0.8,1.9c-2,2.4-3,3.6-3,3.8c-0.3,1.3,0.7,5.1,3,11.5c0.7,1.8,2,4.1,4,7.1
		c0.6-0.6,0.9-1.3,0.8-2.1c0-0.1-0.1-0.5-0.2-1.1c-0.1-0.5-0.2-0.9-0.2-1.2c0-0.9,0.2-3.4,0.5-7.7c0.3-3.3,0.2-5.7-0.2-7.1
		c-0.2-0.6-0.7-1.4-1.5-2.5c-0.7-0.8-0.9-1.6-0.8-2.2c0.1-0.7,0.8-1.2,2.1-1.7c1.2-0.5,2.6-0.8,4.2-0.9c1.7-0.1,3.1,0,4.3,0.4
		c1.3,0.4,2,1,2.2,1.9c0.2,1.2-0.2,2.2-1.4,2.9c-1.5,0.9-2.4,1.6-2.6,2.2c-0.3,2.8-0.2,11.5,0.3,25.9c0,0.2,0,1-0.1,2.2
		c-0.1,0.9,0,1.6,0.1,2.1c0.2,0.5,0.6,1.3,1.5,2.3c0.7,0.8,1,1.6,0.9,2.4c-0.1,0.8-0.8,1.5-2.1,2.2c-1.2,0.6-2.7,0.9-4.3,1
		c-1.7,0.2-3.1,0-4.3-0.4c-1.3-0.5-2-1.3-2.1-2.4c-0.1-0.9,0.2-1.7,1-2.3c0.9-0.8,1.5-1.5,1.7-2.1c-3.3-6.9-5.7-11.3-7.1-13.1
		c0,0.8-0.1,3.2-0.5,7.2c-0.3,3.1-0.2,5.4,0.2,6.9c0.1,0.5,0.6,1.2,1.4,2.2c0.7,0.9,1,1.6,0.9,2.1c-0.3,1.7-2.1,2.4-5.4,2.1
		c-0.5,0-1.8-0.2-4.1-0.5c-1.6-0.2-2.7-0.3-3.3-0.2c0,0-1.7,0.5-5.2,1.6c-1.7,0.5-3,0.1-3.9-1.2c-0.1-1.4,0.3-2.6,1.4-3.6
		c1.2-1.2,1.8-2.2,2-3.1c0.9-6.7,0.9-12.1,0-16.1c-0.1-0.5-0.6-1.3-1.4-2.3c-0.8-0.9-1.2-1.6-1.2-2.1c-0.1-0.8,0.2-1.5,0.9-2.1
		c0.8-0.7,1.3-1.4,1.5-2c0.3-1,0.3-2.2,0.1-3.6c-0.3-2-0.5-3.1-0.5-3.4c-0.3-0.7-0.9-1.2-1.9-1.7c-0.9-0.4-1.4-1-1.5-1.7
		c-0.2-1.5,0.1-2.6,1-3.1c0.7-0.4,1.9-0.6,3.5-0.4c0.9,0.1,2.4,0.4,4.6,0.8c2,0.4,3.5,0.6,4.4,0.7c1.3,0,3-0.2,5.1-0.9
		c1.9-0.6,3.3-0.7,4.3-0.5C496.4,57.6,497,58.2,497.1,58.9z M481.6,70.3c-0.1,3-0.1,4.9-0.1,5.5c0,4.3,0.6,7.3,1.8,9h2.7
		c0.5-2.2,0.6-5.6,0.5-9.9c0-1.3-0.1-3.1-0.3-5.5c-0.1-2.4-0.2-4.1-0.2-5.1c-0.7-0.3-1.6-0.4-2.6-0.4c-1.3,0-1.9,0.3-1.8,1.1
		C481.6,66.3,481.6,68.1,481.6,70.3z"/>
	<path class="st0" d="M552.8,60.1c0.2,1.5-0.1,3-1,4.4c-0.4,0.6-1.3,1.6-2.7,3c-1.6,1.7-2.6,2.6-2.8,2.8c-1.3,1-2.7,1.4-4.2,1.2
		c-0.9-0.8-1.2-2-0.9-3.6c0.6-2.9,0.9-4.3,0.9-4.1c-0.9-1.2-3-1.8-6.4-1.7c-1.3,1.5-2,4.6-1.9,9.5c0.1,7,0.2,10.6,0.2,10.7
		c0.5,0.2,1-0.1,1.6-0.9c0.7-0.9,1.4-1.5,2.1-1.8c0.9-0.3,2.6-0.5,4.9-0.4c3.1,0.1,5,0.1,5.8,0.1c0.5,0,1.4-0.2,2.8-0.3
		c1.1-0.1,1.9-0.2,2.4-0.2c1.5,0,2.4,0.6,2.6,1.9c0.2,1.2-0.4,2.2-1.9,3c-2,1-3.2,1.7-3.4,2.1c-0.7,1.4-0.8,2.8-0.5,4.2
		c0.2,0.9,0.8,2.1,1.6,3.4c1.1,1.7,1.8,2.7,2,3.2c0.6,1.3,0.8,2.5,0.6,3.7c-1,0.7-2.2,0.8-3.5,0.3c-0.4-0.2-0.9-0.4-1.7-0.9
		c-0.7-0.4-1.2-0.6-1.5-0.8c-4.1,2.6-8.2,4.1-12.2,4.6c-4.3,0.5-8.1-0.4-11.2-2.6c-2.1-1.4-3.9-3.4-5.6-6c-1.7-2.7-2.8-5.4-3.2-8.1
		c-0.1-0.9-0.1-2.4,0.2-4.4c0.2-1.9,0.3-3.4,0.1-4.4c-0.1-0.5-0.4-1.2-1-2.1c-0.5-0.8-0.7-1.5-0.7-2.3c0,0.4,1.2-0.9,3.7-4
		c0.3-0.4,1.3-2,2.8-4.7c1.2-2.1,2.5-3.7,3.9-4.6c3-2.2,6.4-3.3,10.2-3.5c4-0.2,7.6,0.7,10.9,2.9c0.3-0.1,0.7-0.2,1.2-0.4
		c0.6-0.2,1-0.3,1.2-0.4c1-0.3,2-0.4,3-0.2C551.7,59.1,552.2,59.6,552.8,60.1z M527.2,65.9c-0.2-0.1-0.4-0.1-0.6-0.1
		c-3.9,5.6-5.7,10.9-5.4,15.8c0.5,0.5,1.4,0.8,2.5,0.9c1.2,0.2,2.1,0.1,2.9-0.3c1.2-4,1.6-9.3,1-16.1
		C527.6,66.2,527.4,66.1,527.2,65.9z M541.2,94.8c1.7-2.2,2.3-4.8,1.6-7.8c-0.7,2.2-2.1,3-4.4,2.4c-2-0.6-3.5-1.7-4.3-3.4
		c-0.9,5.5-0.6,9.4,0.7,11.7C537.3,97.9,539.5,96.9,541.2,94.8z"/>
	<path class="st0" d="M222.6,117.8c2.8,2.4,5.1,6.3,7.1,11.7c2.4,6.3,3,12.2,1.9,17.6c-0.7,3.3-2.9,6.4-6.7,9.2
		c-3.6,2.7-7.3,4.2-11.2,4.6c-4.3,0.5-8.4,0.6-12.2,0.5c-5.8-0.2-8.8-1.1-9-2.8c-0.1-0.8,0.3-1.6,1.2-2.4c1.2-1,1.9-1.9,2.2-2.7
		c0.5-1.2,0.7-4.1,0.8-8.7c0.1-4.5-0.1-7.3-0.5-8.5c-0.3-0.8-1-1.5-2.1-2.2c-1-0.5-1.5-1.2-1.6-1.9c-0.1-0.8,0.2-1.5,0.8-2.2
		c-0.1,0.1,0.5-0.5,1.8-1.7c1.7-1.5,2.1-3.5,1.4-5.9c-0.2-0.5-0.5-0.9-1-1.3c0.1,0.1-0.4-0.2-1.6-0.9c-1.3-0.7-1.7-1.8-1.4-3.2
		c0.3-1.4,1.6-2.1,3.9-1.9c0.4,0,1.5,0.1,3.3,0.4c1.5,0.2,2.6,0.3,3.5,0.2c1.2,0,2.6-0.2,4.1-0.4c2.2-0.4,3.4-0.6,3.7-0.6
		C215.8,114.2,219.6,115.2,222.6,117.8z M202.9,133.3c-0.1,1.1-0.2,1.9-0.1,2.4c0.1,1.7,0.8,2.5,2.3,2.3c0.9-0.1,1.4-0.8,1.7-2
		c0.2-0.9,0.3-2.3,0.2-4.2c-0.2-4.9-0.2-7.8,0.1-8.6c-2.9-1.8-4.4-1.5-4.6,0.9c-0.1,0.8,0,2,0.2,3.5c0.2,1.9,0.4,3,0.4,3.3
		C203.1,131.4,203,132.2,202.9,133.3z M221.8,126.7c-2.7-3.9-5.5-5.1-8.3-3.8c-1.3,11.2-0.9,21.5,1,30.9c3.6-0.3,6.5-2,8.8-5.1
		c2.3-3.2,3.2-7,2.6-11.4C225.4,133.5,224,130,221.8,126.7z"/>
	<path class="st0" d="M278.2,119.8c-2.3,1.2-3.5,1.9-3.7,2c-0.3,1.7-0.4,8.2-0.4,19.8c0,7.5-1.4,12.6-4.3,15.3
		c-2.5,2.4-6.3,3.8-11.5,4.4c-5.6,0.7-9.7-0.3-12.5-2.8c-2.1-1.9-3.8-4.4-5-7.3c-0.4-1-0.7-2.7-1-4.8c-0.3-2.3-0.6-4-1-5.1
		c-0.2-0.6-0.7-1.5-1.6-2.5c-1-1.3-1.7-2.2-2-2.6c-0.6-1-0.8-1.9-0.5-2.6c0.3-0.9,1.2-1.6,2.8-2.3c0-0.8,0.1-2.4,0.5-4.7
		c0.2-1.6,0.2-3.1-0.1-4.3c-0.1-0.5-0.7-1.3-1.7-2.4c-0.9-0.9-1.3-1.7-1.3-2.3c0-2,1.2-2.9,3.5-2.9c0.7,0,1.8,0.2,3.1,0.4
		c1.6,0.3,2.6,0.4,3,0.5c-0.3,0,2.1-0.2,7.3-0.5c2.7-0.2,4.3,0.5,4.7,2.2c-1.8,2.7-2.6,6.8-2.6,12.5c0,4.6,0.5,9.4,1.6,14.5
		c1.4,6.4,2.9,9.7,4.7,10c2,0.4,3.9-0.8,5.7-3.5c1.5-2.3,2.4-4.7,2.6-7.2c0,0.2,0-6.8,0-21c-0.3-0.5-1.4-1.1-3.1-1.9
		c-1.2-0.6-1.8-1.5-1.6-2.8c0.1-0.9,0.8-1.6,2.2-2.1c1.2-0.5,2.7-0.8,4.5-0.8c1.7-0.1,3.3,0.1,4.8,0.4c1.6,0.3,2.6,0.9,3.1,1.5
		L278.2,119.8z M243.1,131.6c0.1,1.7,0.6,5.1,1.4,10.2c0.2,0.1,0.5,0.2,1,0.5c0.5,0.2,0.9,0.4,1.2,0.5c1,0.3,1.8,0.3,2.4,0
		c0-1.7-0.1-5-0.4-10c-0.3-4.7-0.4-8.1-0.2-10.3c-0.6-0.5-1.9-0.8-4-0.7C243.3,123.8,242.8,127.1,243.1,131.6z"/>
	<path class="st0" d="M309.7,121.5c-0.5,1-0.6,2.2-0.5,3.6c0,0.3,0.1,0.9,0.3,1.9c0.1,0.8,0.2,1.5,0.2,2c0.1,1.6,0,5.7-0.4,12.2
		c-0.3,5.1,0,8.9,0.7,11.4c0.2,0.7,0.9,1.6,2.2,2.7c1.1,1,1.6,1.9,1.5,2.6c-0.1,1.2-1.3,2.1-3.8,2.6c-1,0.2-3.4,0.5-7,0.8
		c-4.3,0.4-7.4,0.1-9.2-0.8c-2.3-1.1-2.1-3.1,0.5-6c-0.4-2-0.5-5.2-0.2-9.7c0.2-3.9-0.1-6.7-0.8-8.5c-0.3-0.6-1-1.3-2.1-2
		c-1-0.7-1.5-1.3-1.6-2c-0.1-1.1,0.4-2,1.6-2.8c1.4-0.9,2.2-1.8,2.4-2.6c0.2-0.8,0.2-1.6,0-2.4c-0.4-1.2-0.6-2.2-0.6-3
		c-1.6-0.8-3.4-0.9-5.4-0.3c-0.4,0.5-0.6,1.7-0.7,3.7c-0.1,1.8-0.4,2.9-1,3.3c-1.4,0.3-2.5-0.1-3.3-1.1c-0.7-0.9-1.1-2.1-1.2-3.7
		c-0.1-1.4,0-2.8,0.4-4.3c0.3-1.4,0.8-2.5,1.4-3c11.4-0.2,21.5-0.6,30.3-1.3c3-0.3,4.9,0.1,5.7,1c1,1.1,1.5,3.2,1.4,6.2
		c0,3.2-1,4.9-2.8,4.9c-1.3,0-2.2-0.6-2.6-2c-0.1-0.3-0.2-0.9-0.5-2c-0.2-0.9-0.4-1.6-0.6-2.1C313.6,120.8,312.1,121,309.7,121.5z
		 M298.9,122.9c0.3,1.6,0.3,4.3,0.2,8c-0.1,3.3,0,5.8,0.5,7.5c0.4,0.3,1.1,0.4,2,0.4c0.8,0,1.5-0.2,2-0.4c1.2-4.8,1.2-10.1,0-15.8
		c-1.1-0.6-2.3-0.8-3.7-0.7C299.4,122.1,299.1,122.4,298.9,122.9z"/>
	<path class="st0" d="M356.6,116.7c1-0.6,2.1-0.7,3.3-0.5c1.7,1.2,2,2.8,0.9,4.9c-0.8,1.5-2,2.9-3.6,4c-0.2,1.7-0.8,3-1.8,3.9
		c-0.9,0.7-1.8,1-2.8,0.7c-1-0.3-1.7-1.1-2.1-2.3c-0.4-1.4-0.3-3,0.4-4.9c-0.7-1.6-2.8-2.3-6.2-2.3c-2,15.6-2.2,27.3-0.7,35.3
		c1.7,0.8,3.5,0.9,5.6,0.3c1.9-0.6,3.2-1.6,4-2.9c0.1-0.5-0.1-1.3-0.5-2.5c-0.3-1-0.3-1.8,0.2-2.4c1.2-0.6,2.4-0.7,3.8-0.4
		c1.3,0.3,2.5,0.9,3.6,1.8c1.1,0.9,2,2,2.6,3.2c0.6,1.3,0.8,2.6,0.6,4c-0.5,0.5-1.3,0.7-2.4,0.6c-0.3,0-0.8-0.1-1.3-0.3
		c-0.6-0.2-1.1-0.3-1.3-0.3c-3.4,2.8-7.1,4.4-11.1,4.8c-3.7,0.4-7.3-0.2-10.7-1.9c-3.4-1.7-6.1-4.1-8.2-7.4
		c-2.2-3.4-3.4-7.2-3.7-11.4c0-0.5,0.1-1.7,0.3-3.4c0.2-1.4,0.2-2.5,0-3.2c-0.1-0.5-0.6-1.2-1.6-2.1c-0.8-0.8-1.2-1.6-1-2.5
		c0.1-0.9,0.7-1.6,1.7-2.1c0.3-0.2,0.8-0.3,1.4-0.5c0.9-0.2,1.4-0.4,1.5-0.4c0.7-0.7,1.7-2.3,3-4.6c1.1-2.1,2.3-3.6,3.6-4.6
		c2.5-1.9,5.8-2.8,9.8-2.6c3.8,0.2,7.2,1.3,10,3.2C354.4,117.8,355.3,117.4,356.6,116.7z M333.8,137.3c0.8,0.3,1.6,0.4,2.3,0.4
		c0.5-1.9,0.8-4.1,0.8-6.6c0-2.9-0.3-5-1.1-6.2c-3.1,3.9-4.5,7.9-4,11.9C332,136.7,332.7,136.9,333.8,137.3z"/>
	<path class="st0" d="M389.9,120c-1.1,1.1-1.7,1.8-1.8,1.9c-0.7,3.6-0.7,6.8,0.2,9.5c0.9,2.9,2.6,4.7,5.1,5.5c2.3-0.2,3.8-1.8,4.3-5
		c0.3-1.5,0.3-4.3,0.1-8.3c-0.4-0.4-1.5-1.1-3.2-2.2c-1.1-0.7-1.6-1.5-1.5-2.5c0.1-1,0.9-1.8,2.5-2.5c1.4-0.7,3.1-1,5-1.2
		c2-0.2,3.7,0,5,0.4c1.5,0.5,2.3,1.2,2.4,2.3c0.1,1.2-0.4,2.1-1.5,2.7c-1.5,0.8-2.5,1.5-2.8,1.9c0.1,0.8,0.2,2,0.1,3.6
		c-0.1,1.4,0,2.6,0.2,3.4c0.1,0.5,0.5,1.2,1.1,2c0.5,0.7,0.8,1.4,0.8,2c0,0.6-0.3,1.3-0.9,2.3c-0.8,1.1-1.2,1.9-1.4,2.4
		c-0.5,1.8-0.7,4.1-0.5,7c0.3,4.9,0.5,7.4,0.5,7.7c0.3,0.3,1.3,0.9,3,1.7c1.1,0.6,1.6,1.4,1.6,2.6c0,1.9-1.6,3.1-4.7,3.6
		c-2.7,0.4-5.3,0.2-7.9-0.6c-0.8-1.2-0.8-2.4-0.2-3.6c0.3-0.7,1.1-1.6,2.2-2.7c0.5-2.4,0.5-5.9,0-10.3c-1.7,1.2-3.4,1.4-5.1,0.7
		c0,0-1.4-0.9-4.3-2.7c-0.9,5.2-1,8.9-0.3,11.3c0,0.1,0.5,0.9,1.6,2.4c0.9,1.2,1.2,2.2,1.1,3c-0.2,0.8-1.4,1.5-3.9,2.1
		c-2.2,0.6-4.9,0.9-7.9,1.1c-3.1,0.2-5.7,0-7.8-0.4c-2.4-0.4-3.6-1.2-3.7-2.2c-0.1-0.9,0.4-1.7,1.4-2.4c1.3-0.8,2-1.4,2.3-1.9
		c-0.1-0.9-0.1-3.7,0-8.5c0.1-3.5-0.2-6.2-0.7-8.1c-0.2-0.5-0.6-1.3-1.4-2.4c-0.7-1-1-1.7-1-2.2c0-0.8,0.4-1.5,1.2-2.1
		c1-0.8,1.6-1.4,1.8-1.9c0.5-1.2,0.7-2.4,0.5-3.6c-0.1-0.4-0.2-1-0.4-1.7c-0.2-0.9-0.4-1.5-0.5-2c-0.3-0.4-1.2-1-2.7-1.7
		c-1.1-0.5-1.6-1.3-1.7-2.3c0-1.3,1.1-2.2,3.4-2.8c2-0.5,4.6-0.7,7.8-0.6c2.9,0.1,5.7,0.4,8.2,0.9c2.6,0.5,4.3,1.1,4.9,1.7
		C390.9,118.4,390.6,119.3,389.9,120z M377.4,141.9c0.6,0.5,1.9,0.8,4,0.7c0.4-2.1,0.6-5.2,0.5-9.4c-0.1-4.9,0-8.3,0.2-10.2
		c-1-0.8-2.4-1-4.4-0.7C376.1,126.6,376,133.1,377.4,141.9z"/>
	<path class="st0" d="M411.7,156.8c1.7,0,2.7-1,3-3c0.1-0.6,0.2-1.5,0.2-2.6c0-1.5,0-2.4,0-2.6c0.5-6.8,0.7-10.3,0.7-10.6
		c-0.2-0.7-0.6-1.5-1.5-2.5c-0.8-0.9-1.2-1.6-1.2-2.2c0-0.6,0.3-1.2,1-1.8c0.8-0.7,1.2-1.3,1.3-1.8c0.3-1,0.2-2.4-0.2-3.9
		c-0.4-1.7-0.6-3-0.5-3.7c-0.3-0.6-0.9-1.2-1.9-1.7c-0.9-0.4-1.3-1.1-1.4-1.9c-0.1-1.9,1.2-2.9,3.9-3.1c0.8,0,2.1,0,3.9,0
		c1.9,0.1,3.3,0.1,4.1,0.1c0.8,0,1.8-0.2,3.1-0.4c1.5-0.3,2.5-0.4,2.9-0.5c2-0.2,3.2,0.3,3.6,1.5c-0.6,2-0.9,3.5-0.9,4.5
		c0.1,1.4,0.7,2.7,1.9,3.7c1.5-0.3,2.4-1.5,2.5-3.7c0.1-3,0.3-4.8,0.5-5.2c-0.5,0.3,2.6,0.5,9.3,0.7c0.7,0,1.7,0,3-0.1
		c1.4-0.1,2.3-0.1,2.9-0.1c2.1,0,3.6,0.7,4.3,1.9c0.1,1-0.3,1.9-0.9,2.7c-1,1.1-1.6,1.8-1.7,1.9c-0.2,8.2-0.2,15,0,20.5
		c0,0.7,0,2.3-0.2,4.8c-0.1,2,0,3.3,0.2,4.1c0.1,0.5,0.7,1.3,1.7,2.3c0.9,0.9,1.3,1.7,1.3,2.3c-0.1,1.7-1.3,2.5-3.6,2.4
		c-0.7,0-1.8-0.1-3.4-0.4c-1.6-0.2-2.8-0.3-3.6-0.4c-0.9,0-2.3,0.1-4,0.3c-1.9,0.2-3.2,0.4-3.9,0.4c-0.4,0-1-0.1-1.9-0.2
		c-0.7-0.1-1.2-0.1-1.4-0.1c-0.4,0.1-1,0.4-1.9,1c-0.8,0.6-1.4,0.9-1.8,1c-0.4,0.1-1,0-1.9-0.3c-1-0.3-1.7-0.4-2-0.4
		c0,0-3.1,0.5-9.5,1.5c-3.5,0.5-5.9-0.2-7-2.2L411.7,156.8z M420.1,125.4c0.3,2.4,0.5,3.6,0.5,3.6c0.1,1,0,2.4-0.1,4.3
		c-0.1,2.1-0.2,3.5-0.2,4.3c0.1,3.1,1,4.9,2.9,5.3c1.2-1.9,1.8-5.3,1.8-10c0-2.2-0.2-5.8-0.5-10.8c-0.6-0.4-1.4-0.6-2.4-0.7
		c-1.2-0.1-1.8,0.3-1.9,1C420,123.2,420,124.2,420.1,125.4z M430.9,142.9c-0.1,2.7-0.1,4.4-0.1,5.2c0,3.8,0.6,6.2,1.8,7.1
		c1.8-0.1,3.1-1,3.9-2.5c0.7-1.3,1-3.2,1-5.6c0-1.2,0-3.6-0.3-7.1c-0.2-3.1-0.2-5.4-0.1-6.9c-0.3,0-0.8,0-1.5,0.1
		c-0.7,0-1.3,0.1-1.7,0.1c-1.3,0-2.3-0.4-3-1.1c-0.3,0.6-0.5,1.5-0.4,2.5c0,0.2,0.1,0.6,0.2,1.5c0.1,0.6,0.1,1.2,0.2,1.6
		C431,138.9,431,140.6,430.9,142.9z M442.8,140.3c0.2,0,0.6,0.2,1.1,0.4c0.5,0.2,0.9,0.3,1.2,0.4c1,0.3,1.8,0.2,2.6-0.2
		c1.5-7.2,1.6-13.3,0.3-18.5c-1.1-0.6-2.6-0.7-4.6-0.3C441.9,126.5,441.7,132.6,442.8,140.3z"/>
	<path class="st0" d="M492.7,119.3c-0.1,0.2-0.2,0.5-0.4,0.9c-0.2,0.4-0.3,0.7-0.4,0.9c3,10.1,5.8,18.5,8.5,25.4
		c1.8,4.8,2.9,7.4,3.2,7.8c0.4,0.5,1.4,1.1,2.9,1.8c1.1,0.5,1.6,1.2,1.6,2.1c0.1,1.8-0.9,2.7-2.8,2.6c-0.6,0-1.5-0.1-2.8-0.3
		c-1.3-0.2-2.2-0.3-2.8-0.4c-0.9,0-2.4,0-4.5,0.1c-2,0.1-3.5,0.1-4.4,0.1c-3.2-0.1-4.9-1-5.1-2.8c-0.1-0.8,0.1-1.5,0.6-2.2
		c0.6-0.8,1-1.4,1-1.7c0.2-1.3-0.1-2.5-0.7-3.8c-1-2-1.6-3.3-1.9-4.1c-3.7,2.8-7.1,2.5-10.1-0.9c-1.3,2.2-2.1,3.5-2.3,4.1
		c-0.6,1.3-0.8,2.4-0.6,3.4c0.1,0.5,0.7,1.3,1.7,2.3c1,0.9,1.5,1.7,1.5,2.3c0.1,1.6-0.9,2.8-3.1,3.7c-2,0.8-4,1-6,0.5
		c-1.2-0.3-2.5-0.9-3.6-1.8c-1.2-0.9-1.9-1.8-2.3-2.8c-0.5-1.1-0.3-1.9,0.4-2.6c0.8-0.7,2.3-1.1,4.6-1c1.8-3.4,3-6.2,3.6-8.4
		c1-3.5,0.8-6.7-0.4-9.5c0.3-0.5,0.8-0.9,1.6-1.1c-0.1,0,0.7-0.1,2.3-0.5c2.6-6.7,4-10.4,4.2-11.1c-2-1.7-3.3-3-3.9-3.9
		c-1.4-2-0.8-3.3,1.6-4c0.1,0,0.2,0,0.3,0c0.8,0.1,2.3,0.2,4.5,0.2c3.1,0,5,0.1,5.8,0.1c4.9,0.2,7.6,0.8,8.3,2
		C493.1,117.7,493,118.5,492.7,119.3z M482.2,136.5c-0.2-0.9-0.5-2-1-3.3c-0.6-1.7-0.9-2.6-0.9-2.6h-1c-1.4,1.9-2.1,4.1-2.2,6.7
		c0,1.3,0.2,2.3,0.8,2.9c0.6,0.7,1.5,1,2.7,0.8C482.3,140.7,482.8,139.2,482.2,136.5z M486.1,122.8c-0.3,0-0.6-0.1-1-0.3
		c-0.5,2-0.2,5.1,1,9.2c1.4,4.5,3.1,6.7,5.2,6.4C491,135.7,489.2,130.6,486.1,122.8z"/>
	<path class="st0" d="M535.2,116.9c0.1,0.5-0.2,1.2-0.8,1.9c-2,2.4-3,3.6-3,3.8c-0.3,1.3,0.7,5.1,3,11.5c0.7,1.8,2,4.1,4,7.1
		c0.6-0.6,0.9-1.3,0.8-2.1c0-0.1-0.1-0.5-0.2-1.1c-0.1-0.5-0.2-0.9-0.2-1.2c0-0.9,0.2-3.4,0.5-7.7c0.3-3.3,0.2-5.7-0.2-7.1
		c-0.2-0.6-0.7-1.4-1.5-2.5c-0.7-0.8-0.9-1.6-0.8-2.2c0.1-0.7,0.8-1.2,2.1-1.7c1.2-0.5,2.6-0.8,4.2-0.9c1.7-0.1,3.1,0,4.3,0.4
		c1.3,0.4,2,1,2.2,1.9c0.2,1.2-0.2,2.2-1.4,2.9c-1.5,0.9-2.4,1.6-2.6,2.2c-0.3,2.8-0.2,11.5,0.3,25.9c0,0.2,0,1-0.1,2.2
		c-0.1,0.9,0,1.6,0.1,2.1c0.2,0.5,0.6,1.3,1.5,2.3c0.7,0.8,1,1.6,0.9,2.4c-0.1,0.8-0.8,1.5-2.1,2.2c-1.2,0.6-2.7,0.9-4.3,1
		c-1.7,0.2-3.1,0-4.3-0.4c-1.3-0.5-2-1.3-2.1-2.4c-0.1-0.9,0.2-1.7,1-2.3c0.9-0.8,1.5-1.5,1.7-2.1c-3.3-6.9-5.7-11.3-7.1-13.1
		c0,0.8-0.1,3.2-0.5,7.2c-0.3,3.1-0.2,5.4,0.2,6.9c0.1,0.5,0.6,1.2,1.4,2.2c0.7,0.9,1,1.6,0.9,2.1c-0.3,1.7-2.1,2.4-5.4,2.1
		c-0.5,0-1.8-0.2-4.1-0.5c-1.6-0.2-2.7-0.3-3.3-0.2c0,0-1.7,0.5-5.2,1.6c-1.7,0.5-3,0.1-3.9-1.2c-0.1-1.4,0.3-2.6,1.4-3.6
		c1.2-1.2,1.8-2.2,2-3.1c0.9-6.7,0.9-12.1,0-16.1c-0.1-0.5-0.6-1.3-1.4-2.3c-0.8-0.9-1.2-1.6-1.2-2.1c-0.1-0.8,0.2-1.5,0.9-2.1
		c0.8-0.7,1.3-1.4,1.5-2c0.3-1,0.3-2.2,0.1-3.6c-0.3-2-0.5-3.1-0.5-3.4c-0.3-0.7-0.9-1.2-1.9-1.7c-0.9-0.4-1.4-1-1.5-1.7
		c-0.2-1.5,0.1-2.6,1-3.1c0.7-0.4,1.9-0.6,3.5-0.4c0.9,0.1,2.4,0.4,4.6,0.8c2,0.4,3.5,0.6,4.4,0.7c1.3,0,3-0.2,5.1-0.9
		c1.9-0.6,3.3-0.7,4.3-0.5C534.5,115.6,535.1,116.2,535.2,116.9z M519.7,128.3c-0.1,3-0.1,4.9-0.1,5.5c0,4.3,0.6,7.3,1.8,9h2.7
		c0.5-2.2,0.6-5.6,0.5-9.9c0-1.3-0.1-3.1-0.3-5.5c-0.1-2.4-0.2-4.1-0.2-5.1c-0.7-0.3-1.6-0.4-2.6-0.4c-1.3,0-1.9,0.3-1.8,1.1
		C519.7,124.3,519.7,126.1,519.7,128.3z"/>
</g>
</svg>
