<?xml version="1.0" encoding="iso-8859-1"?>
<!-- Generator: Adobe Illustrator 19.0.0, SVG Export Plug-In . SVG Version: 6.00 Build 0)  -->
<svg version="1.1" id="Layer_1" xmlns="http://www.w3.org/2000/svg" xmlns:xlink="http://www.w3.org/1999/xlink" x="0px" y="0px"
	 viewBox="0 0 496.8 496.8" style="enable-background:new 0 0 496.8 496.8;" xml:space="preserve">
<path style="fill:#EAEAEA;" d="M496,357.6c0,24.8-20,41.6-44.8,41.6H44.8C20,399.2,0,381.6,0,357.6V136.8c0-24,20-41.6,44.8-41.6
	H452c24.8,0,44.8,17.6,44.8,41.6v220.8H496z"/>
<path style="fill:#C4C4C4;" d="M0,138.4c0-24.8,20-43.2,44.8-43.2H452c24.8,0,44.8,17.6,44.8,41.6v220c0,24.8-20,44.8-44.8,44.8"/>
<rect y="151.2" style="fill:#5E6664;" width="496" height="80"/>
<polyline style="fill:#2F423F;" points="496,231.2 496,151.2 0,151.2 "/>
<path style="fill:#F15249;" d="M91.2,315.2c0-19.2,10.4-35.2,25.6-44c-7.2-4-16-7.2-25.6-7.2c-28,0-51.2,23.2-51.2,51.2
	s23.2,51.2,51.2,51.2c9.6,0,18.4-2.4,25.6-7.2C101.6,351.2,91.2,334.4,91.2,315.2z"/>
<path style="fill:#525289;" d="M142.4,264c-9.6,0-18.4,2.4-25.6,7.2c15.2,8.8,25.6,25.6,25.6,44c0,19.2-10.4,35.2-25.6,44
	c7.2,4,16,7.2,25.6,7.2c28,0,51.2-23.2,51.2-51.2C193.6,287.2,170.4,264,142.4,264z"/>
<g>
</g>
<g>
</g>
<g>
</g>
<g>
</g>
<g>
</g>
<g>
</g>
<g>
</g>
<g>
</g>
<g>
</g>
<g>
</g>
<g>
</g>
<g>
</g>
<g>
</g>
<g>
</g>
<g>
</g>
</svg>
